<?xml version="1.0" standalone="no"?>
<!DOCTYPE svg PUBLIC "-//W3C//DTD SVG 20010904//EN"
 "http://www.w3.org/TR/2001/REC-SVG-20010904/DTD/svg10.dtd">
<svg version="1.0" xmlns="http://www.w3.org/2000/svg"
 width="700.000000pt" height="700.000000pt" viewBox="0 0 700.000000 700.000000"
 preserveAspectRatio="xMidYMid meet">
<metadata>
Created by potrace 1.14, written by Peter Selinger 2001-2017
</metadata>
<g transform="translate(0.000000,700.000000) scale(0.100000,-0.100000)"
fill="#000000" stroke="none">
<path d="M660 6359 c-73 -14 -151 -59 -215 -123 -64 -64 -100 -128 -120 -211
-8 -38 -11 -519 -10 -1925 1 -1863 1 -1875 21 -1930 39 -104 105 -186 191
-237 24 -14 53 -42 67 -66 40 -69 113 -134 195 -175 l76 -37 934 -3 934 -3 -7
-47 c-4 -26 -9 -56 -10 -67 -2 -11 -7 -47 -11 -80 -4 -33 -9 -62 -10 -65 -2
-3 -6 -30 -10 -60 -5 -30 -9 -64 -11 -75 -1 -11 -3 -25 -3 -32 -1 -9 -74 -13
-283 -15 -271 -3 -284 -4 -318 -25 -78 -48 -105 -161 -58 -244 33 -60 83 -86
165 -88 30 -1 32 -3 31 -33 -4 -79 45 -154 116 -178 25 -8 377 -10 1303 -8
l1269 3 37 25 c77 53 102 158 56 240 -34 61 -84 87 -167 89 -29 1 -32 4 -30
29 4 49 -12 99 -42 131 -52 54 -84 61 -276 61 -96 0 -174 3 -175 8 0 4 -2 16
-4 27 -2 11 -9 56 -15 100 -7 44 -14 88 -16 99 -2 10 -6 37 -9 60 -14 114 -17
130 -21 138 -3 4 471 8 1053 8 1125 0 1105 -1 1198 48 78 41 142 114 178 204
l21 53 1 1925 c2 2079 4 1982 -50 2076 -36 62 -110 129 -171 156 -29 12 -54
27 -54 32 0 11 -67 93 -100 124 -39 34 -139 79 -205 91 -73 14 -5376 13 -5445
0z"/>
</g>
</svg>
